<?xml version="1.0" encoding="UTF-8" standalone="no"?>
<!-- Created with Inkscape (http://www.inkscape.org/) -->

<svg
   width="512"
   height="512"
   viewBox="0 0 512 512"
   version="1.1"
   id="svg1"
   inkscape:version="1.3.2 (091e20e, 2023-11-25, custom)"
   sodipodi:docname="icon.svg"
   inkscape:export-filename="icon.png"
   inkscape:export-xdpi="96"
   inkscape:export-ydpi="96"
   xmlns:inkscape="http://www.inkscape.org/namespaces/inkscape"
   xmlns:sodipodi="http://sodipodi.sourceforge.net/DTD/sodipodi-0.dtd"
   xmlns="http://www.w3.org/2000/svg"
   xmlns:svg="http://www.w3.org/2000/svg">
  <sodipodi:namedview
     id="namedview1"
     pagecolor="#ffffff"
     bordercolor="#000000"
     borderopacity="0.25"
     inkscape:showpageshadow="2"
     inkscape:pageopacity="0.0"
     inkscape:pagecheckerboard="true"
     inkscape:deskcolor="#d1d1d1"
     inkscape:document-units="px"
     showgrid="true"
     inkscape:zoom="1"
     inkscape:cx="225"
     inkscape:cy="284"
     inkscape:window-width="1920"
     inkscape:window-height="1017"
     inkscape:window-x="-8"
     inkscape:window-y="-8"
     inkscape:window-maximized="1"
     inkscape:current-layer="layer3">
    <inkscape:grid
       id="grid1"
       units="px"
       originx="0"
       originy="0"
       spacingx="16"
       spacingy="16"
       empcolor="#0099e5"
       empopacity="0.30196078"
       color="#0099e5"
       opacity="0.14901961"
       empspacing="4"
       dotted="false"
       gridanglex="30"
       gridanglez="30"
       visible="true" />
  </sodipodi:namedview>
  <defs
     id="defs1" />
  <g
     inkscape:label="Layer 1"
     inkscape:groupmode="layer"
     id="layer1"
     style="display:inline">
    <rect
       style="fill:#ffffff"
       id="rect1"
       width="480"
       height="496"
       x="16"
       y="0"
       ry="0" />
    <rect
       style="fill:#2ecc71"
       id="rect2"
       width="448"
       height="80"
       x="32"
       y="16"
       ry="2.3923044" />
    <rect
       style="fill:#3498db"
       id="rect3"
       width="448"
       height="80"
       x="32"
       y="112"
       ry="2.3923044" />
    <rect
       style="fill:#9b59b6"
       id="rect4"
       width="448"
       height="80"
       x="32"
       y="208"
       ry="2.3923044" />
    <rect
       style="fill:#f39c12"
       id="rect5"
       width="448"
       height="80"
       x="32"
       y="304"
       ry="2.3923044" />
    <rect
       style="fill:#e74c3c"
       id="rect6"
       width="448"
       height="80"
       x="32"
       y="400"
       ry="2.3923044" />
  </g>
  <g
     inkscape:groupmode="layer"
     id="layer2"
     inkscape:label="Layer 2" />
  <g
     inkscape:groupmode="layer"
     id="layer3"
     inkscape:label="Layer 3">
    <g
       id="g17"
       transform="rotate(45,258.79995,230.65011)"
       style="stroke:#000000;stroke-opacity:1;stroke-width:30;stroke-dasharray:none">
      <path
         id="path15"
         style="fill:#ffffff;stroke-width:30;stroke:#000000;stroke-opacity:1;stroke-dasharray:none"
         d="m 224,192 h 96 v 256 l -48,48 -48,-48 z"
         sodipodi:nodetypes="cccccc" />
      <path
         id="path16"
         style="fill:#ff0000;stroke-width:30;stroke:#000000;stroke-opacity:1;stroke-dasharray:none"
         d="m 224,400 96,-48 v 96 l -48,48 -48,-48 z"
         sodipodi:nodetypes="cccccc" />
      <path
         id="path17"
         style="fill:#7f8c8d;stroke-width:30;stroke:#000000;stroke-opacity:1;stroke-dasharray:none"
         d="m 240,16 c -8.86399,0 -16,7.136009 -16,16 v 105.41797 h -46.93359 c -8.86399,0 -17.06641,7.51101 -17.06641,16.375 0,10.88814 0,42.83203 0,54.20703 h 224 c 0,0 0,-37.02257 0,-54.58203 0,-8.86399 -7.13601,-16 -16,-16 H 320 V 32 c 0,-8.863991 -7.13601,-16 -16,-16 z"
         sodipodi:nodetypes="sscssccsscsss" />
    </g>
    <g
       id="g14"
       transform="rotate(45,258.79995,230.65011)">
      <path
         id="rect14"
         style="fill:#ffffff;stroke-width:36"
         d="m 224,192 h 96 v 256 l -48,48 -48,-48 z"
         sodipodi:nodetypes="cccccc" />
      <path
         id="path14"
         style="fill:#ff0000;stroke-width:36"
         d="m 224,400 96,-48 v 96 l -48,48 -48,-48 z"
         sodipodi:nodetypes="cccccc" />
      <path
         id="rect13"
         style="fill:#7f8c8d;stroke-width:36"
         d="m 240,16 c -8.86399,0 -16,7.136009 -16,16 v 105.41797 h -46.93359 c -8.86399,0 -17.06641,7.51101 -17.06641,16.375 0,10.88814 0,42.83203 0,54.20703 h 224 c 0,0 0,-37.02257 0,-54.58203 0,-8.86399 -7.13601,-16 -16,-16 H 320 V 32 c 0,-8.863991 -7.13601,-16 -16,-16 z"
         sodipodi:nodetypes="sscssccsscsss" />
    </g>
  </g>
</svg>
